# xmcd
#
# Track frame offsets:
#	150
#	18365
#	35797
#	64507
#	93470
#	110267
#	130469
#	150946
#
# Disc length: 2417 seconds
#
# Revision: 1
# Processed by: cddbd v1.5.2PL0 Copyright (c) Steve Scherf et al.
# Submitted via: audiograbber 1.83.01
#
DISCID=5e096f08
DTITLE=Ray Charles - At Newport
DYEAR=1900
DGENRE=Blues
TTITLE0=The Right Time
TTITLE1=In A Little Spanish Town
TTITLE2=I Got A Sweetie
TTITLE3=Blues Waltz
TTITLE4=Hot Rod
TTITLE5=Talkin' 'Bout You
TTITLE6=Sherry
TTITLE7=A Fool For You
EXTD=
EXTT0=
EXTT1=
EXTT2=
EXTT3=
EXTT4=
EXTT5=
EXTT6=
EXTT7=
PLAYORDER=
